<mxfile host="app.diagrams.net" modified="2023-06-29T17:51:19.771Z" agent="Mozilla/5.0 (Macintosh; Intel Mac OS X 10_15_7) AppleWebKit/605.1.15 (KHTML, like Gecko) Version/15.6 Safari/605.1.15" etag="3MGXT2P406ELWGNTV9xd" version="21.5.0" type="device">
  <diagram name="Page-1" id="2YBvvXClWsGukQMizWep">
    <mxGraphModel dx="1590" dy="2022" grid="1" gridSize="10" guides="1" tooltips="1" connect="1" arrows="1" fold="1" page="1" pageScale="1" pageWidth="850" pageHeight="1100" math="0" shadow="0">
      <root>
        <mxCell id="0" />
        <mxCell id="1" parent="0" />
        <mxCell id="TSUAtmctlfw9hlG4N717-1" value="" style="rounded=0;whiteSpace=wrap;html=1;" parent="1" vertex="1">
          <mxGeometry x="212.5" y="-50" width="1095" height="1350" as="geometry" />
        </mxCell>
        <mxCell id="aM9ryv3xv72pqoxQDRHE-1" value="ClientApp" style="shape=umlLifeline;perimeter=lifelinePerimeter;whiteSpace=wrap;html=1;container=0;dropTarget=0;collapsible=0;recursiveResize=0;outlineConnect=0;portConstraint=eastwest;newEdgeStyle={&quot;edgeStyle&quot;:&quot;elbowEdgeStyle&quot;,&quot;elbow&quot;:&quot;vertical&quot;,&quot;curved&quot;:0,&quot;rounded&quot;:0};" parent="1" vertex="1">
          <mxGeometry x="360" y="40" width="100" height="1210" as="geometry" />
        </mxCell>
        <mxCell id="aM9ryv3xv72pqoxQDRHE-2" value="" style="html=1;points=[];perimeter=orthogonalPerimeter;outlineConnect=0;targetShapes=umlLifeline;portConstraint=eastwest;newEdgeStyle={&quot;edgeStyle&quot;:&quot;elbowEdgeStyle&quot;,&quot;elbow&quot;:&quot;vertical&quot;,&quot;curved&quot;:0,&quot;rounded&quot;:0};" parent="aM9ryv3xv72pqoxQDRHE-1" vertex="1">
          <mxGeometry x="45" y="70" width="10" height="1110" as="geometry" />
        </mxCell>
        <mxCell id="aM9ryv3xv72pqoxQDRHE-3" value="execute" style="html=1;verticalAlign=bottom;startArrow=oval;endArrow=block;startSize=8;edgeStyle=elbowEdgeStyle;elbow=vertical;curved=0;rounded=0;" parent="aM9ryv3xv72pqoxQDRHE-1" target="aM9ryv3xv72pqoxQDRHE-2" edge="1">
          <mxGeometry relative="1" as="geometry">
            <mxPoint x="-15" y="70" as="sourcePoint" />
          </mxGeometry>
        </mxCell>
        <mxCell id="aM9ryv3xv72pqoxQDRHE-5" value="Server (stub)" style="shape=umlLifeline;perimeter=lifelinePerimeter;whiteSpace=wrap;html=1;container=0;dropTarget=0;collapsible=0;recursiveResize=0;outlineConnect=0;portConstraint=eastwest;newEdgeStyle={&quot;edgeStyle&quot;:&quot;elbowEdgeStyle&quot;,&quot;elbow&quot;:&quot;vertical&quot;,&quot;curved&quot;:0,&quot;rounded&quot;:0};" parent="1" vertex="1">
          <mxGeometry x="500" y="40" width="100" height="1210" as="geometry" />
        </mxCell>
        <mxCell id="aM9ryv3xv72pqoxQDRHE-6" value="" style="html=1;points=[];perimeter=orthogonalPerimeter;outlineConnect=0;targetShapes=umlLifeline;portConstraint=eastwest;newEdgeStyle={&quot;edgeStyle&quot;:&quot;elbowEdgeStyle&quot;,&quot;elbow&quot;:&quot;vertical&quot;,&quot;curved&quot;:0,&quot;rounded&quot;:0};" parent="aM9ryv3xv72pqoxQDRHE-5" vertex="1">
          <mxGeometry x="45" y="130" width="10" height="60" as="geometry" />
        </mxCell>
        <mxCell id="aM9ryv3xv72pqoxQDRHE-7" value="lookup" style="html=1;verticalAlign=bottom;endArrow=block;edgeStyle=elbowEdgeStyle;elbow=horizontal;curved=0;rounded=0;" parent="1" source="aM9ryv3xv72pqoxQDRHE-2" target="DC6JT5hsgjWvX7F0HWQc-12" edge="1">
          <mxGeometry relative="1" as="geometry">
            <mxPoint x="515" y="130" as="sourcePoint" />
            <Array as="points">
              <mxPoint x="500" y="120" />
            </Array>
            <mxPoint x="720" y="120" as="targetPoint" />
          </mxGeometry>
        </mxCell>
        <mxCell id="aM9ryv3xv72pqoxQDRHE-9" value="return stub" style="html=1;verticalAlign=bottom;endArrow=block;edgeStyle=elbowEdgeStyle;elbow=vertical;curved=0;rounded=0;" parent="1" source="DC6JT5hsgjWvX7F0HWQc-11" target="aM9ryv3xv72pqoxQDRHE-2" edge="1">
          <mxGeometry x="-0.0147" relative="1" as="geometry">
            <mxPoint x="495" y="160" as="sourcePoint" />
            <Array as="points">
              <mxPoint x="510" y="140" />
              <mxPoint x="710" y="140" />
              <mxPoint x="510" y="160" />
            </Array>
            <mxPoint x="420" y="140" as="targetPoint" />
            <mxPoint as="offset" />
          </mxGeometry>
        </mxCell>
        <mxCell id="DC6JT5hsgjWvX7F0HWQc-11" value="RMI Registry" style="shape=umlLifeline;perimeter=lifelinePerimeter;whiteSpace=wrap;html=1;container=0;dropTarget=0;collapsible=0;recursiveResize=0;outlineConnect=0;portConstraint=eastwest;newEdgeStyle={&quot;edgeStyle&quot;:&quot;elbowEdgeStyle&quot;,&quot;elbow&quot;:&quot;vertical&quot;,&quot;curved&quot;:0,&quot;rounded&quot;:0};" parent="1" vertex="1">
          <mxGeometry x="710" y="40" width="100" height="120" as="geometry" />
        </mxCell>
        <mxCell id="DC6JT5hsgjWvX7F0HWQc-12" value="" style="html=1;points=[];perimeter=orthogonalPerimeter;outlineConnect=0;targetShapes=umlLifeline;portConstraint=eastwest;newEdgeStyle={&quot;edgeStyle&quot;:&quot;elbowEdgeStyle&quot;,&quot;elbow&quot;:&quot;vertical&quot;,&quot;curved&quot;:0,&quot;rounded&quot;:0};" parent="DC6JT5hsgjWvX7F0HWQc-11" vertex="1">
          <mxGeometry x="45" y="70" width="10" height="40" as="geometry" />
        </mxCell>
        <mxCell id="DC6JT5hsgjWvX7F0HWQc-15" value="ServerImpl" style="shape=umlLifeline;perimeter=lifelinePerimeter;whiteSpace=wrap;html=1;container=0;dropTarget=0;collapsible=0;recursiveResize=0;outlineConnect=0;portConstraint=eastwest;newEdgeStyle={&quot;edgeStyle&quot;:&quot;elbowEdgeStyle&quot;,&quot;elbow&quot;:&quot;vertical&quot;,&quot;curved&quot;:0,&quot;rounded&quot;:0};" parent="1" vertex="1">
          <mxGeometry x="940" y="40" width="100" height="1210" as="geometry" />
        </mxCell>
        <mxCell id="DC6JT5hsgjWvX7F0HWQc-16" value="" style="html=1;points=[];perimeter=orthogonalPerimeter;outlineConnect=0;targetShapes=umlLifeline;portConstraint=eastwest;newEdgeStyle={&quot;edgeStyle&quot;:&quot;elbowEdgeStyle&quot;,&quot;elbow&quot;:&quot;vertical&quot;,&quot;curved&quot;:0,&quot;rounded&quot;:0};" parent="DC6JT5hsgjWvX7F0HWQc-15" vertex="1">
          <mxGeometry x="45" y="135" width="10" height="50" as="geometry" />
        </mxCell>
        <mxCell id="DC6JT5hsgjWvX7F0HWQc-23" value="ServerApp" style="shape=umlLifeline;perimeter=lifelinePerimeter;whiteSpace=wrap;html=1;container=0;dropTarget=0;collapsible=0;recursiveResize=0;outlineConnect=0;portConstraint=eastwest;newEdgeStyle={&quot;edgeStyle&quot;:&quot;elbowEdgeStyle&quot;,&quot;elbow&quot;:&quot;vertical&quot;,&quot;curved&quot;:0,&quot;rounded&quot;:0};" parent="1" vertex="1">
          <mxGeometry x="1050" y="40" width="100" height="1210" as="geometry" />
        </mxCell>
        <mxCell id="DC6JT5hsgjWvX7F0HWQc-24" value="" style="html=1;points=[];perimeter=orthogonalPerimeter;outlineConnect=0;targetShapes=umlLifeline;portConstraint=eastwest;newEdgeStyle={&quot;edgeStyle&quot;:&quot;elbowEdgeStyle&quot;,&quot;elbow&quot;:&quot;vertical&quot;,&quot;curved&quot;:0,&quot;rounded&quot;:0};" parent="DC6JT5hsgjWvX7F0HWQc-23" vertex="1">
          <mxGeometry x="45" y="80" width="10" height="1100" as="geometry" />
        </mxCell>
        <mxCell id="DC6JT5hsgjWvX7F0HWQc-25" value="handler(client, string)" style="html=1;verticalAlign=bottom;endArrow=block;edgeStyle=elbowEdgeStyle;elbow=horizontal;curved=0;rounded=0;" parent="1" source="aM9ryv3xv72pqoxQDRHE-1" target="aM9ryv3xv72pqoxQDRHE-6" edge="1">
          <mxGeometry x="0.0028" relative="1" as="geometry">
            <mxPoint x="430" y="180" as="sourcePoint" />
            <Array as="points">
              <mxPoint x="510" y="190" />
              <mxPoint x="495" y="180" />
            </Array>
            <mxPoint x="555" y="180" as="targetPoint" />
            <mxPoint as="offset" />
          </mxGeometry>
        </mxCell>
        <mxCell id="DC6JT5hsgjWvX7F0HWQc-26" value="&quot;nickname&quot;" style="html=1;verticalAlign=bottom;endArrow=block;edgeStyle=elbowEdgeStyle;elbow=horizontal;curved=0;rounded=0;" parent="1" source="aM9ryv3xv72pqoxQDRHE-5" target="DC6JT5hsgjWvX7F0HWQc-15" edge="1">
          <mxGeometry x="0.0028" relative="1" as="geometry">
            <mxPoint x="590" y="180" as="sourcePoint" />
            <Array as="points">
              <mxPoint x="710" y="200" />
              <mxPoint x="850" y="190" />
              <mxPoint x="930" y="180" />
              <mxPoint x="590" y="170" />
              <mxPoint x="695" y="189.5" />
            </Array>
            <mxPoint x="930" y="180" as="targetPoint" />
            <mxPoint as="offset" />
          </mxGeometry>
        </mxCell>
        <mxCell id="DC6JT5hsgjWvX7F0HWQc-27" value="handler()" style="html=1;verticalAlign=bottom;endArrow=block;edgeStyle=elbowEdgeStyle;elbow=horizontal;curved=0;rounded=0;" parent="1" source="DC6JT5hsgjWvX7F0HWQc-16" target="DC6JT5hsgjWvX7F0HWQc-24" edge="1">
          <mxGeometry relative="1" as="geometry">
            <mxPoint x="1010" y="200" as="sourcePoint" />
            <Array as="points">
              <mxPoint x="1050" y="210" />
            </Array>
            <mxPoint x="1080" y="200" as="targetPoint" />
            <mxPoint as="offset" />
          </mxGeometry>
        </mxCell>
        <mxCell id="DC6JT5hsgjWvX7F0HWQc-28" value="Client (skeleton)" style="shape=umlLifeline;perimeter=lifelinePerimeter;whiteSpace=wrap;html=1;container=0;dropTarget=0;collapsible=0;recursiveResize=0;outlineConnect=0;portConstraint=eastwest;newEdgeStyle={&quot;edgeStyle&quot;:&quot;elbowEdgeStyle&quot;,&quot;elbow&quot;:&quot;vertical&quot;,&quot;curved&quot;:0,&quot;rounded&quot;:0};movable=0;resizable=0;rotatable=0;deletable=0;editable=0;locked=1;connectable=0;" parent="1" vertex="1">
          <mxGeometry x="820" y="40" width="100" height="1210" as="geometry" />
        </mxCell>
        <mxCell id="DC6JT5hsgjWvX7F0HWQc-29" value="" style="html=1;points=[];perimeter=orthogonalPerimeter;outlineConnect=0;targetShapes=umlLifeline;portConstraint=eastwest;newEdgeStyle={&quot;edgeStyle&quot;:&quot;elbowEdgeStyle&quot;,&quot;elbow&quot;:&quot;vertical&quot;,&quot;curved&quot;:0,&quot;rounded&quot;:0};" parent="DC6JT5hsgjWvX7F0HWQc-28" vertex="1">
          <mxGeometry x="45" y="175" width="10" height="50" as="geometry" />
        </mxCell>
        <mxCell id="DC6JT5hsgjWvX7F0HWQc-44" value="" style="html=1;points=[];perimeter=orthogonalPerimeter;outlineConnect=0;targetShapes=umlLifeline;portConstraint=eastwest;newEdgeStyle={&quot;edgeStyle&quot;:&quot;elbowEdgeStyle&quot;,&quot;elbow&quot;:&quot;vertical&quot;,&quot;curved&quot;:0,&quot;rounded&quot;:0};" parent="DC6JT5hsgjWvX7F0HWQc-28" vertex="1">
          <mxGeometry x="-275" y="405" width="10" height="60" as="geometry" />
        </mxCell>
        <mxCell id="DC6JT5hsgjWvX7F0HWQc-45" value="" style="html=1;points=[];perimeter=orthogonalPerimeter;outlineConnect=0;targetShapes=umlLifeline;portConstraint=eastwest;newEdgeStyle={&quot;edgeStyle&quot;:&quot;elbowEdgeStyle&quot;,&quot;elbow&quot;:&quot;vertical&quot;,&quot;curved&quot;:0,&quot;rounded&quot;:0};" parent="DC6JT5hsgjWvX7F0HWQc-28" vertex="1">
          <mxGeometry x="165" y="410" width="10" height="50" as="geometry" />
        </mxCell>
        <mxCell id="DC6JT5hsgjWvX7F0HWQc-46" value="handler(client, string)" style="html=1;verticalAlign=bottom;endArrow=block;edgeStyle=elbowEdgeStyle;elbow=horizontal;curved=0;rounded=0;" parent="DC6JT5hsgjWvX7F0HWQc-28" target="DC6JT5hsgjWvX7F0HWQc-44" edge="1">
          <mxGeometry x="0.0028" relative="1" as="geometry">
            <mxPoint x="-410" y="425" as="sourcePoint" />
            <Array as="points">
              <mxPoint x="-310" y="425" />
              <mxPoint x="-325" y="415" />
            </Array>
            <mxPoint x="-265" y="415" as="targetPoint" />
            <mxPoint as="offset" />
          </mxGeometry>
        </mxCell>
        <mxCell id="DC6JT5hsgjWvX7F0HWQc-47" value="&quot;/start&quot;, &quot;/firstMatch&quot;, &quot;notFisrtMatch&quot;, &quot;/closeLobby&quot;" style="html=1;verticalAlign=bottom;endArrow=block;edgeStyle=elbowEdgeStyle;elbow=horizontal;curved=0;rounded=0;" parent="DC6JT5hsgjWvX7F0HWQc-28" edge="1">
          <mxGeometry x="0.0028" relative="1" as="geometry">
            <mxPoint x="-270" y="435" as="sourcePoint" />
            <Array as="points">
              <mxPoint x="-110" y="435" />
              <mxPoint x="30" y="425" />
              <mxPoint x="110" y="415" />
              <mxPoint x="-230" y="405" />
              <mxPoint x="-125" y="424.5" />
            </Array>
            <mxPoint x="170" y="435" as="targetPoint" />
            <mxPoint as="offset" />
          </mxGeometry>
        </mxCell>
        <mxCell id="DC6JT5hsgjWvX7F0HWQc-48" value="handler()" style="html=1;verticalAlign=bottom;endArrow=block;edgeStyle=elbowEdgeStyle;elbow=horizontal;curved=0;rounded=0;" parent="DC6JT5hsgjWvX7F0HWQc-28" source="DC6JT5hsgjWvX7F0HWQc-45" edge="1">
          <mxGeometry relative="1" as="geometry">
            <mxPoint x="190" y="435" as="sourcePoint" />
            <Array as="points">
              <mxPoint x="230" y="445" />
            </Array>
            <mxPoint x="275" y="445" as="targetPoint" />
            <mxPoint as="offset" />
          </mxGeometry>
        </mxCell>
        <mxCell id="DC6JT5hsgjWvX7F0HWQc-49" value="" style="html=1;points=[];perimeter=orthogonalPerimeter;outlineConnect=0;targetShapes=umlLifeline;portConstraint=eastwest;newEdgeStyle={&quot;edgeStyle&quot;:&quot;elbowEdgeStyle&quot;,&quot;elbow&quot;:&quot;vertical&quot;,&quot;curved&quot;:0,&quot;rounded&quot;:0};" parent="DC6JT5hsgjWvX7F0HWQc-28" vertex="1">
          <mxGeometry x="45" y="460" width="10" height="50" as="geometry" />
        </mxCell>
        <mxCell id="DC6JT5hsgjWvX7F0HWQc-50" value="getState()" style="html=1;verticalAlign=bottom;endArrow=block;edgeStyle=elbowEdgeStyle;elbow=vertical;curved=0;rounded=0;" parent="DC6JT5hsgjWvX7F0HWQc-28" target="DC6JT5hsgjWvX7F0HWQc-49" edge="1">
          <mxGeometry x="-0.0147" relative="1" as="geometry">
            <mxPoint x="278" y="480" as="sourcePoint" />
            <Array as="points">
              <mxPoint x="210" y="480" />
              <mxPoint x="157.5" y="475" />
              <mxPoint x="357.5" y="475" />
              <mxPoint x="157.5" y="495" />
            </Array>
            <mxPoint x="62.5" y="475" as="targetPoint" />
            <mxPoint as="offset" />
          </mxGeometry>
        </mxCell>
        <mxCell id="DC6JT5hsgjWvX7F0HWQc-51" value="getState()" style="html=1;verticalAlign=bottom;endArrow=block;edgeStyle=elbowEdgeStyle;elbow=vertical;curved=0;rounded=0;" parent="DC6JT5hsgjWvX7F0HWQc-28" edge="1">
          <mxGeometry x="-0.0147" relative="1" as="geometry">
            <mxPoint x="51" y="495" as="sourcePoint" />
            <Array as="points">
              <mxPoint x="-100" y="495" />
              <mxPoint x="-68.75" y="485" />
              <mxPoint x="131.25" y="485" />
              <mxPoint x="-68.75" y="505" />
            </Array>
            <mxPoint x="-410" y="495" as="targetPoint" />
            <mxPoint as="offset" />
          </mxGeometry>
        </mxCell>
        <mxCell id="DC6JT5hsgjWvX7F0HWQc-52" value="WAIT" style="html=1;verticalAlign=bottom;endArrow=block;edgeStyle=elbowEdgeStyle;elbow=horizontal;curved=0;rounded=0;" parent="DC6JT5hsgjWvX7F0HWQc-28" edge="1">
          <mxGeometry x="0.0044" relative="1" as="geometry">
            <mxPoint x="-410" y="515" as="sourcePoint" />
            <Array as="points">
              <mxPoint x="-410" y="515" />
              <mxPoint x="-255" y="514.5" />
            </Array>
            <mxPoint x="280" y="515" as="targetPoint" />
            <mxPoint as="offset" />
          </mxGeometry>
        </mxCell>
        <mxCell id="DC6JT5hsgjWvX7F0HWQc-53" value="&lt;font color=&quot;#66b2ff&quot;&gt;loop&lt;br&gt;state: WAIT&lt;/font&gt;" style="shape=umlFrame;whiteSpace=wrap;html=1;pointerEvents=0;width=70;height=40;strokeColor=#66B2FF;" parent="DC6JT5hsgjWvX7F0HWQc-28" vertex="1">
          <mxGeometry x="-500" y="395" width="900" height="175" as="geometry" />
        </mxCell>
        <mxCell id="DC6JT5hsgjWvX7F0HWQc-54" value="&lt;font style=&quot;font-size: 10px;&quot;&gt;chiama waitCommand&lt;br&gt;&lt;/font&gt;" style="text;html=1;align=center;verticalAlign=middle;resizable=0;points=[];autosize=1;strokeColor=none;fillColor=none;rotation=0;" parent="DC6JT5hsgjWvX7F0HWQc-28" vertex="1">
          <mxGeometry x="280" y="505" width="120" height="30" as="geometry" />
        </mxCell>
        <mxCell id="DC6JT5hsgjWvX7F0HWQc-30" value="getState()" style="html=1;verticalAlign=bottom;endArrow=block;edgeStyle=elbowEdgeStyle;elbow=vertical;curved=0;rounded=0;" parent="1" target="DC6JT5hsgjWvX7F0HWQc-29" edge="1">
          <mxGeometry x="-0.0147" relative="1" as="geometry">
            <mxPoint x="1098" y="245" as="sourcePoint" />
            <Array as="points">
              <mxPoint x="1030" y="245" />
              <mxPoint x="977.5" y="240" />
              <mxPoint x="1177.5" y="240" />
              <mxPoint x="977.5" y="260" />
            </Array>
            <mxPoint x="882.5" y="240" as="targetPoint" />
            <mxPoint as="offset" />
          </mxGeometry>
        </mxCell>
        <mxCell id="DC6JT5hsgjWvX7F0HWQc-31" value="getState()" style="html=1;verticalAlign=bottom;endArrow=block;edgeStyle=elbowEdgeStyle;elbow=vertical;curved=0;rounded=0;" parent="1" source="DC6JT5hsgjWvX7F0HWQc-29" target="aM9ryv3xv72pqoxQDRHE-1" edge="1">
          <mxGeometry x="-0.0147" relative="1" as="geometry">
            <mxPoint x="850" y="260" as="sourcePoint" />
            <Array as="points">
              <mxPoint x="720" y="260" />
              <mxPoint x="751.25" y="250" />
              <mxPoint x="951.25" y="250" />
              <mxPoint x="751.25" y="270" />
            </Array>
            <mxPoint x="648.75" y="250" as="targetPoint" />
            <mxPoint as="offset" />
          </mxGeometry>
        </mxCell>
        <mxCell id="DC6JT5hsgjWvX7F0HWQc-32" value="INIT" style="html=1;verticalAlign=bottom;endArrow=block;edgeStyle=elbowEdgeStyle;elbow=horizontal;curved=0;rounded=0;" parent="1" target="DC6JT5hsgjWvX7F0HWQc-23" edge="1">
          <mxGeometry x="0.0044" relative="1" as="geometry">
            <mxPoint x="410" y="280" as="sourcePoint" />
            <Array as="points">
              <mxPoint x="810" y="280" />
              <mxPoint x="960" y="280" />
              <mxPoint x="410" y="280" />
              <mxPoint x="565" y="279.5" />
            </Array>
            <mxPoint x="870" y="280" as="targetPoint" />
            <mxPoint as="offset" />
          </mxGeometry>
        </mxCell>
        <mxCell id="DC6JT5hsgjWvX7F0HWQc-38" value="" style="html=1;points=[];perimeter=orthogonalPerimeter;outlineConnect=0;targetShapes=umlLifeline;portConstraint=eastwest;newEdgeStyle={&quot;edgeStyle&quot;:&quot;elbowEdgeStyle&quot;,&quot;elbow&quot;:&quot;vertical&quot;,&quot;curved&quot;:0,&quot;rounded&quot;:0};" parent="1" vertex="1">
          <mxGeometry x="865" y="290" width="10" height="110" as="geometry" />
        </mxCell>
        <mxCell id="DC6JT5hsgjWvX7F0HWQc-35" value="loop&lt;br&gt;state: INIT" style="shape=umlFrame;whiteSpace=wrap;html=1;pointerEvents=0;width=70;height=40;fontColor=#66B2FF;strokeColor=#66B2FF;" parent="1" vertex="1">
          <mxGeometry x="320" y="160" width="900" height="190" as="geometry" />
        </mxCell>
        <mxCell id="DC6JT5hsgjWvX7F0HWQc-36" value="&lt;font style=&quot;font-size: 10px;&quot;&gt;chiama initCommand&lt;/font&gt;" style="text;html=1;align=center;verticalAlign=middle;resizable=0;points=[];autosize=1;strokeColor=none;fillColor=none;rotation=0;" parent="1" vertex="1">
          <mxGeometry x="1100" y="270" width="120" height="30" as="geometry" />
        </mxCell>
        <mxCell id="DC6JT5hsgjWvX7F0HWQc-39" value="setNickname() or update(&quot;/nickname&quot;)" style="html=1;verticalAlign=bottom;endArrow=block;edgeStyle=elbowEdgeStyle;elbow=vertical;curved=0;rounded=0;" parent="1" source="DC6JT5hsgjWvX7F0HWQc-24" target="DC6JT5hsgjWvX7F0HWQc-38" edge="1">
          <mxGeometry x="-0.0147" relative="1" as="geometry">
            <mxPoint x="1080" y="310" as="sourcePoint" />
            <Array as="points">
              <mxPoint x="1033.5" y="310" />
              <mxPoint x="981" y="305" />
              <mxPoint x="1181" y="305" />
              <mxPoint x="981" y="325" />
            </Array>
            <mxPoint x="878.5" y="310" as="targetPoint" />
            <mxPoint as="offset" />
          </mxGeometry>
        </mxCell>
        <mxCell id="DC6JT5hsgjWvX7F0HWQc-40" value="setNickname() or update(&quot;/nickname&quot;)" style="html=1;verticalAlign=bottom;endArrow=block;edgeStyle=elbowEdgeStyle;elbow=vertical;curved=0;rounded=0;" parent="1" source="DC6JT5hsgjWvX7F0HWQc-38" target="aM9ryv3xv72pqoxQDRHE-2" edge="1">
          <mxGeometry x="-0.0147" relative="1" as="geometry">
            <mxPoint x="840" y="320" as="sourcePoint" />
            <Array as="points">
              <mxPoint x="700" y="315" />
              <mxPoint x="750" y="320" />
              <mxPoint x="781.25" y="310" />
              <mxPoint x="981.25" y="310" />
              <mxPoint x="781.25" y="330" />
            </Array>
            <mxPoint x="440" y="320.5" as="targetPoint" />
            <mxPoint as="offset" />
          </mxGeometry>
        </mxCell>
        <mxCell id="DC6JT5hsgjWvX7F0HWQc-41" value="&lt;div style=&quot;text-align: justify; font-size: 13px;&quot;&gt;&lt;font style=&quot;font-size: 13px;&quot;&gt;while ServerApp&lt;/font&gt;&lt;/div&gt;&lt;div style=&quot;text-align: justify; font-size: 13px;&quot;&gt;&lt;font style=&quot;font-size: 13px;&quot;&gt;invokes client.&lt;/font&gt;&lt;/div&gt;&lt;div style=&quot;text-align: justify; font-size: 13px;&quot;&gt;&lt;font style=&quot;font-size: 13px;&quot;&gt;update(&quot;/nickname&quot;)&lt;/font&gt;&lt;/div&gt;" style="text;html=1;align=center;verticalAlign=middle;resizable=0;points=[];autosize=1;strokeColor=none;fillColor=none;rotation=270;" parent="1" vertex="1">
          <mxGeometry x="290" y="240" width="140" height="60" as="geometry" />
        </mxCell>
        <mxCell id="DC6JT5hsgjWvX7F0HWQc-42" value="setState(WAIT)" style="html=1;verticalAlign=bottom;endArrow=block;edgeStyle=elbowEdgeStyle;elbow=vertical;curved=0;rounded=0;" parent="1" source="DC6JT5hsgjWvX7F0HWQc-24" target="DC6JT5hsgjWvX7F0HWQc-38" edge="1">
          <mxGeometry x="-0.0147" relative="1" as="geometry">
            <mxPoint x="1090" y="380" as="sourcePoint" />
            <Array as="points">
              <mxPoint x="1038.5" y="380" />
              <mxPoint x="986" y="375" />
              <mxPoint x="1186" y="375" />
              <mxPoint x="986" y="395" />
            </Array>
            <mxPoint x="880" y="380" as="targetPoint" />
            <mxPoint as="offset" />
          </mxGeometry>
        </mxCell>
        <mxCell id="DC6JT5hsgjWvX7F0HWQc-58" value="setState(WAIT)" style="html=1;verticalAlign=bottom;endArrow=block;edgeStyle=elbowEdgeStyle;elbow=vertical;curved=0;rounded=0;" parent="1" source="DC6JT5hsgjWvX7F0HWQc-38" target="aM9ryv3xv72pqoxQDRHE-2" edge="1">
          <mxGeometry x="-0.0147" relative="1" as="geometry">
            <mxPoint x="820" y="390" as="sourcePoint" />
            <Array as="points">
              <mxPoint x="700" y="390" />
              <mxPoint x="750" y="395" />
              <mxPoint x="781.25" y="385" />
              <mxPoint x="981.25" y="385" />
              <mxPoint x="781.25" y="405" />
            </Array>
            <mxPoint x="415" y="390" as="targetPoint" />
            <mxPoint as="offset" />
          </mxGeometry>
        </mxCell>
        <mxCell id="DC6JT5hsgjWvX7F0HWQc-59" value="&lt;div style=&quot;font-size: 13px;&quot;&gt;while string!=&quot;/start&quot;&lt;/div&gt;" style="text;html=1;align=center;verticalAlign=middle;resizable=0;points=[];autosize=1;strokeColor=none;fillColor=none;rotation=270;fontSize=13;" parent="1" vertex="1">
          <mxGeometry x="290" y="530" width="140" height="30" as="geometry" />
        </mxCell>
        <mxCell id="DC6JT5hsgjWvX7F0HWQc-63" value="setState(PLAY)" style="html=1;verticalAlign=bottom;endArrow=block;edgeStyle=elbowEdgeStyle;elbow=vertical;curved=0;rounded=0;" parent="1" source="DC6JT5hsgjWvX7F0HWQc-24" target="DC6JT5hsgjWvX7F0HWQc-64" edge="1">
          <mxGeometry x="-0.0147" relative="1" as="geometry">
            <mxPoint x="1080" y="640" as="sourcePoint" />
            <Array as="points">
              <mxPoint x="1043.5" y="640" />
              <mxPoint x="991" y="635" />
              <mxPoint x="1191" y="635" />
              <mxPoint x="991" y="655" />
            </Array>
            <mxPoint x="880" y="640" as="targetPoint" />
            <mxPoint as="offset" />
          </mxGeometry>
        </mxCell>
        <mxCell id="DC6JT5hsgjWvX7F0HWQc-64" value="" style="html=1;points=[];perimeter=orthogonalPerimeter;outlineConnect=0;targetShapes=umlLifeline;portConstraint=eastwest;newEdgeStyle={&quot;edgeStyle&quot;:&quot;elbowEdgeStyle&quot;,&quot;elbow&quot;:&quot;vertical&quot;,&quot;curved&quot;:0,&quot;rounded&quot;:0};" parent="1" vertex="1">
          <mxGeometry x="865" y="620" width="10" height="60" as="geometry" />
        </mxCell>
        <mxCell id="DC6JT5hsgjWvX7F0HWQc-65" value="setState(PLAY)" style="html=1;verticalAlign=bottom;endArrow=block;edgeStyle=elbowEdgeStyle;elbow=vertical;curved=0;rounded=0;" parent="1" source="DC6JT5hsgjWvX7F0HWQc-64" target="aM9ryv3xv72pqoxQDRHE-2" edge="1">
          <mxGeometry x="-0.017" relative="1" as="geometry">
            <mxPoint x="860" y="660" as="sourcePoint" />
            <Array as="points">
              <mxPoint x="710" y="660" />
              <mxPoint x="760" y="665" />
              <mxPoint x="791.25" y="655" />
              <mxPoint x="991.25" y="655" />
              <mxPoint x="791.25" y="675" />
            </Array>
            <mxPoint x="430" y="660" as="targetPoint" />
            <mxPoint as="offset" />
          </mxGeometry>
        </mxCell>
        <mxCell id="DC6JT5hsgjWvX7F0HWQc-66" value="" style="html=1;points=[];perimeter=orthogonalPerimeter;outlineConnect=0;targetShapes=umlLifeline;portConstraint=eastwest;newEdgeStyle={&quot;edgeStyle&quot;:&quot;elbowEdgeStyle&quot;,&quot;elbow&quot;:&quot;vertical&quot;,&quot;curved&quot;:0,&quot;rounded&quot;:0};" parent="1" vertex="1">
          <mxGeometry x="545" y="710" width="10" height="60" as="geometry" />
        </mxCell>
        <mxCell id="DC6JT5hsgjWvX7F0HWQc-67" value="" style="html=1;points=[];perimeter=orthogonalPerimeter;outlineConnect=0;targetShapes=umlLifeline;portConstraint=eastwest;newEdgeStyle={&quot;edgeStyle&quot;:&quot;elbowEdgeStyle&quot;,&quot;elbow&quot;:&quot;vertical&quot;,&quot;curved&quot;:0,&quot;rounded&quot;:0};" parent="1" vertex="1">
          <mxGeometry x="985" y="715" width="10" height="50" as="geometry" />
        </mxCell>
        <mxCell id="DC6JT5hsgjWvX7F0HWQc-68" value="handler(client, string)" style="html=1;verticalAlign=bottom;endArrow=block;edgeStyle=elbowEdgeStyle;elbow=horizontal;curved=0;rounded=0;" parent="1" target="DC6JT5hsgjWvX7F0HWQc-66" edge="1">
          <mxGeometry x="0.0028" relative="1" as="geometry">
            <mxPoint x="410" y="730" as="sourcePoint" />
            <Array as="points">
              <mxPoint x="510" y="730" />
              <mxPoint x="495" y="720" />
            </Array>
            <mxPoint x="555" y="720" as="targetPoint" />
            <mxPoint as="offset" />
          </mxGeometry>
        </mxCell>
        <mxCell id="DC6JT5hsgjWvX7F0HWQc-69" value="&quot;/remove row column&quot;, &quot;/add row column&quot;" style="html=1;verticalAlign=bottom;endArrow=block;edgeStyle=elbowEdgeStyle;elbow=horizontal;curved=0;rounded=0;" parent="1" edge="1">
          <mxGeometry x="0.0028" relative="1" as="geometry">
            <mxPoint x="550" y="740" as="sourcePoint" />
            <Array as="points">
              <mxPoint x="710" y="740" />
              <mxPoint x="850" y="730" />
              <mxPoint x="930" y="720" />
              <mxPoint x="590" y="710" />
              <mxPoint x="695" y="729.5" />
            </Array>
            <mxPoint x="990" y="740" as="targetPoint" />
            <mxPoint as="offset" />
          </mxGeometry>
        </mxCell>
        <mxCell id="DC6JT5hsgjWvX7F0HWQc-70" value="handler()" style="html=1;verticalAlign=bottom;endArrow=block;edgeStyle=elbowEdgeStyle;elbow=horizontal;curved=0;rounded=0;" parent="1" source="DC6JT5hsgjWvX7F0HWQc-67" edge="1">
          <mxGeometry relative="1" as="geometry">
            <mxPoint x="1010" y="740" as="sourcePoint" />
            <Array as="points">
              <mxPoint x="1050" y="750" />
            </Array>
            <mxPoint x="1095" y="750" as="targetPoint" />
            <mxPoint as="offset" />
          </mxGeometry>
        </mxCell>
        <mxCell id="DC6JT5hsgjWvX7F0HWQc-71" value="" style="html=1;points=[];perimeter=orthogonalPerimeter;outlineConnect=0;targetShapes=umlLifeline;portConstraint=eastwest;newEdgeStyle={&quot;edgeStyle&quot;:&quot;elbowEdgeStyle&quot;,&quot;elbow&quot;:&quot;vertical&quot;,&quot;curved&quot;:0,&quot;rounded&quot;:0};" parent="1" vertex="1">
          <mxGeometry x="865" y="765" width="10" height="50" as="geometry" />
        </mxCell>
        <mxCell id="DC6JT5hsgjWvX7F0HWQc-72" value="getState()" style="html=1;verticalAlign=bottom;endArrow=block;edgeStyle=elbowEdgeStyle;elbow=vertical;curved=0;rounded=0;" parent="1" target="DC6JT5hsgjWvX7F0HWQc-71" edge="1">
          <mxGeometry x="-0.0147" relative="1" as="geometry">
            <mxPoint x="1098" y="785" as="sourcePoint" />
            <Array as="points">
              <mxPoint x="1030" y="785" />
              <mxPoint x="977.5" y="780" />
              <mxPoint x="1177.5" y="780" />
              <mxPoint x="977.5" y="800" />
            </Array>
            <mxPoint x="882.5" y="780" as="targetPoint" />
            <mxPoint as="offset" />
          </mxGeometry>
        </mxCell>
        <mxCell id="DC6JT5hsgjWvX7F0HWQc-73" value="getState()" style="html=1;verticalAlign=bottom;endArrow=block;edgeStyle=elbowEdgeStyle;elbow=vertical;curved=0;rounded=0;" parent="1" edge="1">
          <mxGeometry x="-0.0147" relative="1" as="geometry">
            <mxPoint x="871" y="800" as="sourcePoint" />
            <Array as="points">
              <mxPoint x="720" y="800" />
              <mxPoint x="751.25" y="790" />
              <mxPoint x="951.25" y="790" />
              <mxPoint x="751.25" y="810" />
            </Array>
            <mxPoint x="410" y="800" as="targetPoint" />
            <mxPoint as="offset" />
          </mxGeometry>
        </mxCell>
        <mxCell id="DC6JT5hsgjWvX7F0HWQc-74" value="PLAY" style="html=1;verticalAlign=bottom;endArrow=block;edgeStyle=elbowEdgeStyle;elbow=vertical;curved=0;rounded=0;" parent="1" edge="1">
          <mxGeometry x="0.0044" relative="1" as="geometry">
            <mxPoint x="410" y="820" as="sourcePoint" />
            <Array as="points">
              <mxPoint x="410" y="820" />
              <mxPoint x="565" y="819.5" />
            </Array>
            <mxPoint x="1100" y="820" as="targetPoint" />
            <mxPoint as="offset" />
          </mxGeometry>
        </mxCell>
        <mxCell id="DC6JT5hsgjWvX7F0HWQc-75" value="&lt;font color=&quot;#66b2ff&quot;&gt;loop&lt;br&gt;state: PLAY&lt;/font&gt;" style="shape=umlFrame;whiteSpace=wrap;html=1;pointerEvents=0;width=70;height=40;strokeColor=#66B2FF;" parent="1" vertex="1">
          <mxGeometry x="320" y="695" width="900" height="175" as="geometry" />
        </mxCell>
        <mxCell id="DC6JT5hsgjWvX7F0HWQc-76" value="&lt;font style=&quot;font-size: 10px;&quot;&gt;chiama playCommand&lt;br&gt;&lt;/font&gt;" style="text;html=1;align=center;verticalAlign=middle;resizable=0;points=[];autosize=1;strokeColor=none;fillColor=none;rotation=0;" parent="1" vertex="1">
          <mxGeometry x="1100" y="810" width="120" height="30" as="geometry" />
        </mxCell>
        <mxCell id="DC6JT5hsgjWvX7F0HWQc-77" value="&lt;div style=&quot;font-size: 13px;&quot;&gt;while the match&lt;/div&gt;&lt;div style=&quot;font-size: 13px;&quot;&gt;is not finished&lt;/div&gt;" style="text;html=1;align=center;verticalAlign=middle;resizable=0;points=[];autosize=1;strokeColor=none;fillColor=none;rotation=270;fontSize=13;" parent="1" vertex="1">
          <mxGeometry x="305" y="790" width="110" height="40" as="geometry" />
        </mxCell>
        <mxCell id="DC6JT5hsgjWvX7F0HWQc-78" value="setState(END)" style="html=1;verticalAlign=bottom;endArrow=block;edgeStyle=elbowEdgeStyle;elbow=vertical;curved=0;rounded=0;" parent="1" target="DC6JT5hsgjWvX7F0HWQc-79" edge="1">
          <mxGeometry x="-0.0147" relative="1" as="geometry">
            <mxPoint x="1095" y="905" as="sourcePoint" />
            <Array as="points">
              <mxPoint x="1043.5" y="905" />
              <mxPoint x="991" y="900" />
              <mxPoint x="1191" y="900" />
              <mxPoint x="991" y="920" />
            </Array>
            <mxPoint x="880" y="905" as="targetPoint" />
            <mxPoint as="offset" />
          </mxGeometry>
        </mxCell>
        <mxCell id="DC6JT5hsgjWvX7F0HWQc-79" value="" style="html=1;points=[];perimeter=orthogonalPerimeter;outlineConnect=0;targetShapes=umlLifeline;portConstraint=eastwest;newEdgeStyle={&quot;edgeStyle&quot;:&quot;elbowEdgeStyle&quot;,&quot;elbow&quot;:&quot;vertical&quot;,&quot;curved&quot;:0,&quot;rounded&quot;:0};" parent="1" vertex="1">
          <mxGeometry x="865" y="885" width="10" height="60" as="geometry" />
        </mxCell>
        <mxCell id="DC6JT5hsgjWvX7F0HWQc-80" value="setState(END)" style="html=1;verticalAlign=bottom;endArrow=block;edgeStyle=elbowEdgeStyle;elbow=vertical;curved=0;rounded=0;" parent="1" source="DC6JT5hsgjWvX7F0HWQc-79" edge="1">
          <mxGeometry x="-0.017" relative="1" as="geometry">
            <mxPoint x="860" y="925" as="sourcePoint" />
            <Array as="points">
              <mxPoint x="710" y="925" />
              <mxPoint x="760" y="930" />
              <mxPoint x="791.25" y="920" />
              <mxPoint x="991.25" y="920" />
              <mxPoint x="791.25" y="940" />
            </Array>
            <mxPoint x="415" y="925" as="targetPoint" />
            <mxPoint as="offset" />
          </mxGeometry>
        </mxCell>
        <mxCell id="DC6JT5hsgjWvX7F0HWQc-93" value="" style="html=1;points=[];perimeter=orthogonalPerimeter;outlineConnect=0;targetShapes=umlLifeline;portConstraint=eastwest;newEdgeStyle={&quot;edgeStyle&quot;:&quot;elbowEdgeStyle&quot;,&quot;elbow&quot;:&quot;vertical&quot;,&quot;curved&quot;:0,&quot;rounded&quot;:0};" parent="1" vertex="1">
          <mxGeometry x="542.5" y="975" width="10" height="60" as="geometry" />
        </mxCell>
        <mxCell id="DC6JT5hsgjWvX7F0HWQc-94" value="" style="html=1;points=[];perimeter=orthogonalPerimeter;outlineConnect=0;targetShapes=umlLifeline;portConstraint=eastwest;newEdgeStyle={&quot;edgeStyle&quot;:&quot;elbowEdgeStyle&quot;,&quot;elbow&quot;:&quot;vertical&quot;,&quot;curved&quot;:0,&quot;rounded&quot;:0};" parent="1" vertex="1">
          <mxGeometry x="982.5" y="980" width="10" height="50" as="geometry" />
        </mxCell>
        <mxCell id="DC6JT5hsgjWvX7F0HWQc-95" value="handler(client, string)" style="html=1;verticalAlign=bottom;endArrow=block;edgeStyle=elbowEdgeStyle;elbow=horizontal;curved=0;rounded=0;" parent="1" target="DC6JT5hsgjWvX7F0HWQc-93" edge="1">
          <mxGeometry x="0.0028" relative="1" as="geometry">
            <mxPoint x="407.5" y="995" as="sourcePoint" />
            <Array as="points">
              <mxPoint x="507.5" y="995" />
              <mxPoint x="492.5" y="985" />
            </Array>
            <mxPoint x="552.5" y="985" as="targetPoint" />
            <mxPoint as="offset" />
          </mxGeometry>
        </mxCell>
        <mxCell id="DC6JT5hsgjWvX7F0HWQc-96" value="string" style="html=1;verticalAlign=bottom;endArrow=block;edgeStyle=elbowEdgeStyle;elbow=horizontal;curved=0;rounded=0;" parent="1" edge="1">
          <mxGeometry x="0.0028" relative="1" as="geometry">
            <mxPoint x="547.5" y="1005" as="sourcePoint" />
            <Array as="points">
              <mxPoint x="707.5" y="1005" />
              <mxPoint x="847.5" y="995" />
              <mxPoint x="927.5" y="985" />
              <mxPoint x="587.5" y="975" />
              <mxPoint x="692.5" y="994.5" />
            </Array>
            <mxPoint x="987.5" y="1005" as="targetPoint" />
            <mxPoint as="offset" />
          </mxGeometry>
        </mxCell>
        <mxCell id="DC6JT5hsgjWvX7F0HWQc-97" value="handler()" style="html=1;verticalAlign=bottom;endArrow=block;edgeStyle=elbowEdgeStyle;elbow=horizontal;curved=0;rounded=0;" parent="1" source="DC6JT5hsgjWvX7F0HWQc-94" edge="1">
          <mxGeometry relative="1" as="geometry">
            <mxPoint x="1007.5" y="1005" as="sourcePoint" />
            <Array as="points">
              <mxPoint x="1047.5" y="1015" />
            </Array>
            <mxPoint x="1092.5" y="1015" as="targetPoint" />
            <mxPoint as="offset" />
          </mxGeometry>
        </mxCell>
        <mxCell id="DC6JT5hsgjWvX7F0HWQc-98" value="" style="html=1;points=[];perimeter=orthogonalPerimeter;outlineConnect=0;targetShapes=umlLifeline;portConstraint=eastwest;newEdgeStyle={&quot;edgeStyle&quot;:&quot;elbowEdgeStyle&quot;,&quot;elbow&quot;:&quot;vertical&quot;,&quot;curved&quot;:0,&quot;rounded&quot;:0};" parent="1" vertex="1">
          <mxGeometry x="862.5" y="1030" width="10" height="50" as="geometry" />
        </mxCell>
        <mxCell id="DC6JT5hsgjWvX7F0HWQc-99" value="getState()" style="html=1;verticalAlign=bottom;endArrow=block;edgeStyle=elbowEdgeStyle;elbow=vertical;curved=0;rounded=0;" parent="1" target="DC6JT5hsgjWvX7F0HWQc-98" edge="1">
          <mxGeometry x="-0.0147" relative="1" as="geometry">
            <mxPoint x="1095.5" y="1050" as="sourcePoint" />
            <Array as="points">
              <mxPoint x="1027.5" y="1050" />
              <mxPoint x="975" y="1045" />
              <mxPoint x="1175" y="1045" />
              <mxPoint x="975" y="1065" />
            </Array>
            <mxPoint x="880" y="1045" as="targetPoint" />
            <mxPoint as="offset" />
          </mxGeometry>
        </mxCell>
        <mxCell id="DC6JT5hsgjWvX7F0HWQc-100" value="getState()" style="html=1;verticalAlign=bottom;endArrow=block;edgeStyle=elbowEdgeStyle;elbow=vertical;curved=0;rounded=0;" parent="1" edge="1">
          <mxGeometry x="-0.0147" relative="1" as="geometry">
            <mxPoint x="868.5" y="1065" as="sourcePoint" />
            <Array as="points">
              <mxPoint x="717.5" y="1065" />
              <mxPoint x="748.75" y="1055" />
              <mxPoint x="948.75" y="1055" />
              <mxPoint x="748.75" y="1075" />
            </Array>
            <mxPoint x="407.5" y="1065" as="targetPoint" />
            <mxPoint as="offset" />
          </mxGeometry>
        </mxCell>
        <mxCell id="DC6JT5hsgjWvX7F0HWQc-101" value="PLAY" style="html=1;verticalAlign=bottom;endArrow=block;edgeStyle=elbowEdgeStyle;elbow=vertical;curved=0;rounded=0;" parent="1" edge="1">
          <mxGeometry x="0.0044" relative="1" as="geometry">
            <mxPoint x="407.5" y="1085" as="sourcePoint" />
            <Array as="points">
              <mxPoint x="407.5" y="1085" />
              <mxPoint x="562.5" y="1084.5" />
            </Array>
            <mxPoint x="1097.5" y="1085" as="targetPoint" />
            <mxPoint as="offset" />
          </mxGeometry>
        </mxCell>
        <mxCell id="DC6JT5hsgjWvX7F0HWQc-102" value="&lt;font color=&quot;#66b2ff&quot;&gt;state: END&lt;/font&gt;" style="shape=umlFrame;whiteSpace=wrap;html=1;pointerEvents=0;width=70;height=40;strokeColor=#66B2FF;" parent="1" vertex="1">
          <mxGeometry x="317.5" y="960" width="900" height="220" as="geometry" />
        </mxCell>
        <mxCell id="DC6JT5hsgjWvX7F0HWQc-104" value="&lt;div style=&quot;font-size: 13px;&quot;&gt;&lt;br&gt;&lt;/div&gt;" style="text;html=1;align=center;verticalAlign=middle;resizable=0;points=[];autosize=1;strokeColor=none;fillColor=none;rotation=270;fontSize=13;" parent="1" vertex="1">
          <mxGeometry x="347.5" y="1060" width="20" height="30" as="geometry" />
        </mxCell>
        <mxCell id="DC6JT5hsgjWvX7F0HWQc-111" value="setState(WAIT)" style="html=1;verticalAlign=bottom;endArrow=block;edgeStyle=elbowEdgeStyle;elbow=vertical;curved=0;rounded=0;" parent="1" edge="1">
          <mxGeometry x="-0.0147" relative="1" as="geometry">
            <mxPoint x="1100" y="1120" as="sourcePoint" />
            <Array as="points">
              <mxPoint x="1048.5" y="1120" />
              <mxPoint x="996" y="1115" />
              <mxPoint x="1196" y="1115" />
              <mxPoint x="996" y="1135" />
            </Array>
            <mxPoint x="880" y="1120" as="targetPoint" />
            <mxPoint as="offset" />
          </mxGeometry>
        </mxCell>
        <mxCell id="DC6JT5hsgjWvX7F0HWQc-112" value="" style="html=1;points=[];perimeter=orthogonalPerimeter;outlineConnect=0;targetShapes=umlLifeline;portConstraint=eastwest;newEdgeStyle={&quot;edgeStyle&quot;:&quot;elbowEdgeStyle&quot;,&quot;elbow&quot;:&quot;vertical&quot;,&quot;curved&quot;:0,&quot;rounded&quot;:0};" parent="1" vertex="1">
          <mxGeometry x="865" y="1105" width="10" height="60" as="geometry" />
        </mxCell>
        <mxCell id="DC6JT5hsgjWvX7F0HWQc-113" value="setState(WAIT)" style="html=1;verticalAlign=bottom;endArrow=block;edgeStyle=elbowEdgeStyle;elbow=vertical;curved=0;rounded=0;" parent="1" source="DC6JT5hsgjWvX7F0HWQc-112" edge="1">
          <mxGeometry x="-0.017" relative="1" as="geometry">
            <mxPoint x="862.5" y="1150" as="sourcePoint" />
            <Array as="points">
              <mxPoint x="707.5" y="1150" />
              <mxPoint x="757.5" y="1155" />
              <mxPoint x="788.75" y="1145" />
              <mxPoint x="988.75" y="1145" />
              <mxPoint x="788.75" y="1165" />
            </Array>
            <mxPoint x="412.5" y="1150" as="targetPoint" />
            <mxPoint as="offset" />
          </mxGeometry>
        </mxCell>
      </root>
    </mxGraphModel>
  </diagram>
</mxfile>
